<svg xmlns="http://www.w3.org/2000/svg" version="1.1" xmlns:xlink="http://www.w3.org/1999/xlink" xmlns:svgjs="http://svgjs.dev/svgjs" width="2000" height="1247" viewBox="0 0 2000 1247"><g transform="matrix(1,0,0,1,-1.2121212121212466,0.504858299595071)"><svg viewBox="0 0 396 247" data-background-color="#243837" preserveAspectRatio="xMidYMid meet" height="1247" width="2000" xmlns="http://www.w3.org/2000/svg" xmlns:xlink="http://www.w3.org/1999/xlink"><g id="tight-bounds" transform="matrix(1,0,0,1,0.2400000000000091,-0.09999999999999432)"><svg viewBox="0 0 395.52 247.2" height="247.2" width="395.52"><g><svg></svg></g><g><svg viewBox="0 0 395.52 247.2" height="247.2" width="395.52"><g transform="matrix(1,0,0,1,75.54432,94.81256984140177)"><svg viewBox="0 0 244.43135999999998 57.57486031719644" height="57.57486031719644" width="244.43135999999998"><g><svg viewBox="0 0 244.43135999999998 57.57486031719644" height="57.57486031719644" width="244.43135999999998"><g><svg viewBox="0 0 244.43135999999998 57.57486031719644" height="57.57486031719644" width="244.43135999999998"><g><svg viewBox="0 0 244.43135999999998 57.57486031719644" height="57.57486031719644" width="244.43135999999998"><g id="textblocktransform"><svg viewBox="0 0 244.43135999999998 57.57486031719644" height="57.57486031719644" width="244.43135999999998" id="textblock"><g><svg viewBox="0 0 244.43135999999998 31.053128521806247" height="31.053128521806247" width="244.43135999999998"><g transform="matrix(1,0,0,1,0,0)"><svg width="244.43135999999998" viewBox="2.81 -34.06 379.51 48.22000000000001" height="31.053128521806247" data-palette-color="#3164cc"><path d="M2.81-11.4L2.81-11.4Q2.81-14.06 3.96-16.42 5.1-18.77 7.17-20.52 9.23-22.27 12.11-23.28 14.99-24.29 18.43-24.29L18.43-24.29Q22.05-24.29 24.89-23.33 27.73-22.36 29.7-20.65 31.67-18.95 32.7-16.6 33.74-14.26 33.74-11.5L33.74-11.5Q33.74-8.84 32.6-6.59 31.47-4.35 29.38-2.72 27.29-1.1 24.38-0.18 21.46 0.73 17.87 0.73L17.87 0.73Q14.48 0.73 11.71-0.28 8.94-1.29 6.96-2.98 4.98-4.66 3.89-6.85 2.81-9.03 2.81-11.4ZM6.64-1.12L6.64-1.12Q9.01 0.59 11.88 1.51 14.75 2.44 18.36 2.44L18.36 2.44Q21.73 2.44 24.83 1.53 27.93 0.61 30.3-1.17 32.67-2.95 34.08-5.55 35.5-8.15 35.5-11.5L35.5-11.5Q35.5-13.13 35.05-14.81 34.59-16.48 33.78-18.02 32.96-19.56 31.79-20.89 30.62-22.22 29.17-23.14L29.17-23.14Q30.81-22.41 32.17-21.22 33.52-20.02 34.47-18.49 35.42-16.97 35.95-15.19 36.47-13.4 36.47-11.5L36.47-11.5Q36.47-9.11 35.79-7.07 35.11-5.03 33.9-3.38 32.69-1.73 31.02-0.46 29.35 0.81 27.34 1.65 25.34 2.49 23.08 2.93 20.83 3.37 18.48 3.37L18.48 3.37Q16.53 3.37 14.75 3.06 12.96 2.76 11.44 2.19 9.91 1.61 8.69 0.78 7.47-0.05 6.64-1.12ZM8.23-11.5L8.23-11.5Q8.23-9.62 8.95-8.07 9.67-6.52 10.99-5.41 12.3-4.3 14.15-3.69 15.99-3.08 18.24-3.08L18.24-3.08Q20.51-3.08 22.36-3.7 24.22-4.32 25.56-5.43 26.9-6.54 27.64-8.09 28.37-9.64 28.37-11.5L28.37-11.5Q28.37-13.33 27.64-14.95 26.9-16.58 25.59-17.81 24.27-19.04 22.42-19.76 20.58-20.48 18.36-20.48L18.36-20.48Q16.04-20.48 14.17-19.79 12.3-19.09 10.99-17.88 9.67-16.67 8.95-15.04 8.23-13.4 8.23-11.5ZM9.94-11.4L9.94-11.4Q9.94-12.94 10.55-14.29 11.16-15.65 12.27-16.64 13.38-17.63 14.93-18.2 16.48-18.77 18.36-18.77L18.36-18.77Q19.56-18.77 20.68-18.52 21.8-18.26 22.75-17.77 23.71-17.29 24.44-16.59 25.17-15.89 25.61-15.01L25.61-15.01Q24-16.48 22.25-17.16 20.51-17.85 18.31-17.85L18.31-17.85Q16.72-17.85 15.38-17.33 14.04-16.82 13.04-15.94 12.04-15.06 11.47-13.89 10.91-12.72 10.91-11.4L10.91-11.4Q10.91-10.3 11.18-9.35 11.45-8.4 12.1-7.58 12.74-6.76 13.82-6.1 14.89-5.44 16.5-4.93L16.5-4.93Q15.04-5.03 13.83-5.55 12.62-6.08 11.76-6.93 10.89-7.79 10.41-8.94 9.94-10.08 9.94-11.4ZM49.17 7.86L55.37 7.86 59.1 0.9 45.48-19.9 40.26-19.9 40.26-23.56 56.93-23.56 56.93-19.9 51.76-19.9 61.84-4.17 70.29-19.9 64.35-19.9 64.35-23.56 80.61-23.56 80.61-19.9 75.66-19.9 58.52 11.52 49.17 11.52 49.17 7.86ZM50.63 13.23L59.79 13.23 76.95-18.19 82.37-18.19 82.37-22.19 83.35-22.19 83.35-17.26 77.51-17.26 60.4 14.16 50.63 14.16 50.63 13.23ZM62.03-7.5L55.2-18.19 58.69-18.19 58.69-22.19 59.67-22.19 59.67-17.26 56.93-17.26 62.57-8.47 62.03-7.5ZM65.55-17.26L65.55-18.19 68.09-18.19 67.6-17.26 65.55-17.26ZM41.72-17.26L41.72-18.19 45.26-18.19 45.87-17.26 41.72-17.26ZM87.69 0L87.69-6.71 92.72-6.71Q93.38-5.71 94.6-4.96 95.82-4.2 97.39-3.71 98.97-3.22 100.85-2.98 102.73-2.73 104.71-2.73L104.71-2.73Q106.34-2.73 107.49-2.98 108.64-3.22 109.35-3.66 110.05-4.1 110.37-4.69 110.69-5.27 110.69-5.98L110.69-5.98Q110.69-7.47 108.31-8.53 105.93-9.59 100.78-10.16L100.78-10.16Q97.36-10.52 95.06-11.17 92.77-11.82 91.36-12.74 89.96-13.67 89.36-14.87 88.76-16.06 88.76-17.5L88.76-17.5Q88.76-18.75 89.55-19.97 90.33-21.19 91.93-22.16 93.53-23.12 95.93-23.71 98.33-24.29 101.58-24.29L101.58-24.29Q102.63-24.29 103.73-24.15 104.83-24 105.88-23.72 106.93-23.44 107.88-23.05 108.83-22.66 109.59-22.17L109.59-22.17 109.59-23.54 114.84-23.54 114.84-16.94 109.59-16.94Q109.32-17.7 108.47-18.38 107.61-19.07 106.44-19.58 105.27-20.09 103.95-20.4 102.63-20.7 101.46-20.7L101.46-20.7Q99.92-20.7 98.55-20.48 97.19-20.26 96.19-19.86 95.19-19.46 94.6-18.9 94.01-18.33 94.01-17.65L94.01-17.65Q94.01-17.02 94.47-16.5 94.92-15.99 95.98-15.55 97.04-15.11 98.81-14.73 100.58-14.36 103.22-14.04L103.22-14.04Q106.73-13.6 109.15-12.92 111.57-12.23 113.08-11.24 114.59-10.25 115.27-8.94 115.94-7.62 115.94-5.91L115.94-5.91Q115.94-4.66 115.18-3.48 114.42-2.29 112.97-1.35 111.52-0.42 109.41 0.16 107.29 0.73 104.56 0.73L104.56 0.73Q102.8 0.73 101.26 0.6 99.73 0.46 98.31 0.15 96.89-0.17 95.58-0.66 94.26-1.15 92.94-1.86L92.94-1.86 92.94 0 87.69 0ZM110.79-14.31L110.79-15.23 116.6-15.23 116.6-22.51 117.57-22.51 117.57-14.31 110.79-14.31ZM95.8-17.65L95.8-17.65Q95.87-17.97 96.38-18.24 96.89-18.51 97.69-18.71 98.48-18.92 99.45-19.04 100.41-19.17 101.39-19.17L101.39-19.17Q102.22-19.17 103.11-19.04 104-18.92 104.79-18.7 105.59-18.48 106.23-18.15 106.88-17.82 107.25-17.41L107.25-17.41Q106.68-17.65 105.9-17.81 105.12-17.97 104.3-18.07 103.49-18.16 102.7-18.21 101.92-18.26 101.39-18.26L101.39-18.26Q99.41-18.26 97.96-18.07 96.5-17.87 95.8-17.65ZM89.11-12.82L89.11-12.82Q89.79-11.94 90.74-11.25 91.69-10.57 93.04-10.03 94.38-9.5 96.16-9.12 97.94-8.74 100.26-8.47L100.26-8.47Q102.39-8.23 103.95-7.95 105.51-7.67 106.56-7.32 107.61-6.98 108.2-6.56 108.78-6.13 108.95-5.59L108.95-5.59Q108.44-5.93 107.78-6.19 107.12-6.45 106.1-6.67 105.07-6.88 103.57-7.1 102.07-7.32 99.85-7.59L99.85-7.59Q95.26-8.13 92.6-9.34 89.94-10.55 89.11-12.82ZM88.89 1.71L94.7 1.71 94.7 0.68Q95.38 1 96.43 1.31 97.48 1.61 98.79 1.87 100.09 2.12 101.56 2.28 103.02 2.44 104.54 2.44L104.54 2.44Q107.56 2.44 110 1.77 112.45 1.1 114.16-0.04 115.86-1.17 116.78-2.67 117.7-4.17 117.7-5.83L117.7-5.83Q117.7-6.49 117.62-7.06 117.55-7.62 117.37-8.13 117.18-8.64 116.88-9.16 116.57-9.67 116.11-10.23L116.11-10.23Q118.67-8.72 118.67-5.83L118.67-5.83Q118.67-3.88 117.67-2.2 116.67-0.51 114.83 0.72 112.98 1.95 110.37 2.66 107.76 3.37 104.51 3.37L104.51 3.37Q103.32 3.37 102.09 3.26 100.87 3.15 99.73 2.95 98.58 2.76 97.55 2.49 96.53 2.22 95.72 1.88L95.72 1.88 95.72 2.69 88.89 2.69 88.89 1.71ZM128.97-8.74L128.97-19.41 123.6-19.41 123.6-23.56 128.97-23.56 128.97-28.49 134.22-30.69 134.22-23.56 146.35-23.56 146.35-19.41 134.22-19.41 134.22-7.76Q134.22-5.93 135.37-5.04 136.52-4.15 138.49-4.15L138.49-4.15 145.38-4.15 145.38 0 138.49 0Q136.52 0 134.78-0.43 133.05-0.85 131.76-1.87 130.46-2.88 129.72-4.55 128.97-6.23 128.97-8.74L128.97-8.74ZM135.98-25.02L135.98-29.35 136.96-29.79 136.96-25.02 135.98-25.02ZM135.93-6.76L135.93-17.97 148.11-17.97 148.11-22.46 149.09-22.46 149.09-17.04 136.91-17.04 136.91-5.79Q136.08-6.01 135.93-6.76L135.93-6.76ZM125.07-16.77L125.07-17.7 128-17.7 128-16.77 125.07-16.77ZM128.83-2.1L128.83-2.1Q129.61-1 130.57-0.27 131.54 0.46 132.73 0.9 133.93 1.34 135.34 1.53 136.76 1.71 138.44 1.71L138.44 1.71 147.14 1.71 147.14-3.05 148.11-3.05 148.11 2.64 138.32 2.64Q136.44 2.64 134.9 2.39 133.37 2.15 132.18 1.6 131 1.05 130.16 0.13 129.31-0.78 128.83-2.1ZM154.31-11.33L154.31-11.33Q154.31-13.92 155.26-16.26 156.22-18.6 158.12-20.39 160.02-22.17 162.86-23.23 165.69-24.29 169.42-24.29L169.42-24.29Q172.94-24.29 175.7-23.35 178.46-22.41 180.39-20.63 182.31-18.85 183.33-16.27 184.34-13.7 184.34-10.4L184.34-10.4 159.66-10.4Q159.88-8.64 160.79-7.28 161.71-5.91 163.12-4.97 164.54-4.03 166.34-3.54 168.13-3.05 170.08-3.05L170.08-3.05Q171.67-3.05 173.32-3.31 174.97-3.56 176.43-4 177.9-4.44 179.04-4.99 180.19-5.54 180.8-6.13L180.8-6.13 181.73-6.13 184.02-3.64Q181.51-1.49 177.91-0.38 174.31 0.73 169.96 0.73L169.96 0.73Q166.18 0.73 163.26-0.2 160.34-1.12 158.35-2.76 156.36-4.39 155.34-6.59 154.31-8.79 154.31-11.33ZM162-8.69L186-8.69Q186.05-9.06 186.07-9.48 186.1-9.91 186.1-10.4L186.1-10.4Q186.1-12.48 185.67-14.37 185.24-16.26 184.43-17.88 183.61-19.51 182.41-20.85 181.22-22.19 179.7-23.14L179.7-23.14Q181.31-22.51 182.67-21.4 184.02-20.29 185-18.7 185.98-17.11 186.53-15.04 187.07-12.96 187.07-10.4L187.07-10.4Q187.07-10.21 187.06-9.91 187.05-9.62 187.03-9.25 187-8.89 186.97-8.51 186.93-8.13 186.88-7.76L186.88-7.76 163.81-7.76Q164.27-6.98 165.52-6.16 166.76-5.35 168.74-4.79L168.74-4.79Q167.52-4.79 166.46-5.08 165.4-5.37 164.53-5.88 163.66-6.4 163.01-7.12 162.37-7.84 162-8.69L162-8.69ZM159.8-13.45L178.7-13.45Q178.31-15.14 177.49-16.46 176.67-17.77 175.48-18.66 174.28-19.56 172.74-20.03 171.21-20.51 169.37-20.51L169.37-20.51Q167.4-20.51 165.77-19.98 164.15-19.46 162.93-18.52 161.71-17.58 160.92-16.28 160.12-14.99 159.8-13.45L159.8-13.45ZM163.15-14.5L162.03-14.5Q162.93-16.5 164.87-17.65 166.81-18.8 169.37-18.8L169.37-18.8Q170.42-18.8 171.41-18.63 172.4-18.46 173.24-18.1 174.09-17.75 174.72-17.24 175.36-16.72 175.72-16.06L175.72-16.06Q174.33-16.99 172.74-17.43 171.16-17.87 169.33-17.87L169.33-17.87Q167.2-17.87 165.59-16.99 163.98-16.11 163.15-14.5L163.15-14.5ZM157.27-1.07L157.27-1.07Q159.63 0.61 162.77 1.54 165.91 2.47 169.96 2.47L169.96 2.47Q173.92 2.47 177.37 1.56 180.82 0.66 183.61-1.2L183.61-1.2 184.27-0.49Q181.12 1.64 177.64 2.51 174.16 3.39 170.35 3.39L170.35 3.39Q165.4 3.39 162.14 2.2 158.88 1 157.27-1.07ZM193.18 0L193.18-3.66 198.55-3.66 198.55-19.41 193.18-19.41 193.18-23.56 203.8-23.56 203.8-19.48Q204.55-20.46 205.61-21.34 206.68-22.22 208.02-22.88 209.36-23.54 210.95-23.91 212.54-24.29 214.34-24.29L214.34-24.29Q214.88-24.29 215.69-24.26 216.49-24.22 217.22-24.1L217.22-24.1 217.22-19.31Q216.37-19.51 215.54-19.58 214.71-19.65 213.93-19.65L213.93-19.65Q211.97-19.65 210.23-19.03 208.48-18.41 207.12-17.22 205.75-16.04 204.87-14.33 203.99-12.62 203.8-10.42L203.8-10.42 203.8-3.66 212.59-3.66 212.59 0 193.18 0ZM205.51-5.13L205.51-8.23Q205.51-10.52 206.09-12.33 206.68-14.14 207.76-15.38 208.85-16.63 210.41-17.29 211.97-17.94 213.93-17.94L213.93-17.94Q214.34-17.94 214.98-17.88 215.61-17.82 216.31-17.7 217-17.58 217.71-17.4 218.42-17.21 218.98-16.97L218.98-16.97 218.98-22.73 219.96-22.73 219.96-15.75Q219.27-16.04 218.48-16.27 217.69-16.5 216.87-16.67 216.05-16.85 215.3-16.93 214.54-17.02 213.93-17.02L213.93-17.02Q212.15-17.02 210.77-16.43 209.39-15.84 208.43-14.75 207.48-13.65 206.98-12.06 206.48-10.47 206.48-8.47L206.48-8.47 206.48-5.13 205.51-5.13ZM194.64-16.77L194.64-17.7 197.52-17.7 197.52-16.77 194.64-16.77ZM194.64 1.71L214.34 1.71 214.34-2.29 215.32-2.29 215.32 2.64 194.64 2.64 194.64 1.71ZM240.46 0L240.46-3.66 245.83-3.66 245.83-30.4 240.46-30.4 240.46-34.06 251.08-34.06 251.08-3.66 256.45-3.66 256.45 0 240.46 0ZM252.79-5.13L252.79-32.81 253.77-32.81 253.77-5.13 252.79-5.13ZM241.93-27.76L241.93-28.69 244.81-28.69 244.81-27.76 241.93-27.76ZM241.93 1.71L258.21 1.71 258.21-2.29 259.19-2.29 259.19 2.64 241.93 2.64 241.93 1.71ZM263.7-11.69L263.7-11.69Q263.7-13.96 264.65-16.21 265.61-18.46 267.47-20.25 269.34-22.05 272.1-23.17 274.86-24.29 278.45-24.29L278.45-24.29Q279.59-24.29 280.9-24.12 282.21-23.95 283.51-23.56 284.82-23.17 286.06-22.52 287.31-21.88 288.33-20.95L288.33-20.95 288.33-23.56 298.83-23.56 298.83-19.41 293.46-19.41 293.46-3.66 298.83-3.66 298.83 0 288.33 0 288.33-3.17Q287.38-2.22 286.17-1.49 284.97-0.76 283.61-0.27 282.26 0.22 280.8 0.48 279.35 0.73 277.91 0.73L277.91 0.73Q274.39 0.73 271.73-0.27 269.07-1.27 267.29-2.97 265.51-4.66 264.6-6.92 263.7-9.18 263.7-11.69ZM295.22-5.13L295.22-17.7 300.59-17.7 300.59-21.7 301.57-21.7 301.57-16.77 296.2-16.77 296.2-5.13 295.22-5.13ZM269-11.89L269-11.89Q269-9.86 269.72-8.23 270.44-6.59 271.68-5.44 272.93-4.3 274.64-3.66 276.35-3.03 278.32-3.03L278.32-3.03Q279.47-3.03 280.66-3.26 281.84-3.49 282.95-3.97 284.06-4.44 285.05-5.16 286.04-5.88 286.76-6.87 287.48-7.86 287.91-9.13 288.33-10.4 288.33-11.96L288.33-11.96Q288.33-13.7 287.53-15.25 286.72-16.8 285.37-17.97 284.01-19.14 282.21-19.82 280.4-20.51 278.4-20.51L278.4-20.51Q276.4-20.51 274.67-19.9 272.95-19.29 271.7-18.16 270.44-17.04 269.72-15.44 269-13.84 269-11.89ZM270.68-11.77L270.68-11.77Q270.68-13.31 271.26-14.59 271.83-15.87 272.86-16.81 273.88-17.75 275.3-18.27 276.71-18.8 278.4-18.8L278.4-18.8Q279.67-18.8 280.69-18.52 281.72-18.24 282.48-17.83 283.23-17.43 283.72-17 284.21-16.58 284.4-16.26L284.4-16.26Q283.09-16.99 281.69-17.43 280.3-17.87 278.4-17.87L278.4-17.87Q276.86-17.87 275.63-17.37 274.39-16.87 273.52-16.02 272.64-15.16 272.16-14.04 271.68-12.92 271.68-11.67L271.68-11.67Q271.68-10.5 271.95-9.47 272.22-8.45 272.82-7.58 273.42-6.71 274.38-5.99 275.35-5.27 276.71-4.74L276.71-4.74Q275.18-5 274.04-5.65 272.9-6.3 272.16-7.23 271.42-8.15 271.05-9.31 270.68-10.47 270.68-11.77ZM289.8 1.71L300.59 1.71 300.59-2.29 301.57-2.29 301.57 2.64 289.8 2.64 289.8 1.71ZM266.85-1.05L266.85-1.05Q267.85-0.24 269.12 0.4 270.39 1.05 271.83 1.5 273.27 1.95 274.82 2.2 276.37 2.44 277.93 2.44L277.93 2.44Q280.64 2.44 283 1.77 285.36 1.1 287.19-0.1L287.19-0.1 287.19 1.03Q285.36 2.12 282.95 2.75 280.55 3.37 277.96 3.37L277.96 3.37Q276.18 3.37 274.47 3.09 272.76 2.81 271.29 2.25 269.83 1.68 268.68 0.85 267.53 0.02 266.85-1.05ZM308.77 0L308.77-3.66 312.92-3.66 312.92-30.15 307.55-30.15 307.55-34.06 318.17-34.06 318.17-19.87Q319.95-21.7 322.5-22.75 325.05-23.8 328.05-23.8L328.05-23.8Q331.5-23.8 334.14-22.79 336.79-21.78 338.61-20.1 340.43-18.43 341.37-16.28 342.31-14.14 342.31-11.84L342.31-11.84Q342.31-9.06 341.32-6.75 340.33-4.44 338.49-2.78 336.65-1.12 334.05-0.2 331.45 0.73 328.22 0.73L328.22 0.73Q325.12 0.73 322.54-0.21 319.95-1.15 318.17-2.98L318.17-2.98 318.17 0 308.77 0ZM319.95-23.44L319.95-32.81 320.92-32.81 320.92-23.93 319.95-23.44ZM309.01-27.51L309.01-28.44 311.89-28.44 311.89-27.51 309.01-27.51ZM310.23 1.71L319.92 1.71 319.92 0.44Q320.8 0.9 321.83 1.27 322.85 1.64 323.94 1.89 325.03 2.15 326.12 2.29 327.22 2.44 328.22 2.44L328.22 2.44Q331.67 2.44 334.57 1.46 337.48 0.49 339.59-1.34 341.7-3.17 342.89-5.82 344.07-8.47 344.07-11.84L344.07-11.84Q344.07-13.53 343.69-14.97 343.31-16.41 342.69-17.61 342.07-18.82 341.26-19.8 340.46-20.78 339.6-21.56L339.6-21.56Q340.92-20.87 341.93-19.82 342.95-18.77 343.64-17.49 344.34-16.21 344.7-14.76 345.07-13.31 345.07-11.84L345.07-11.84Q345.07-8.35 343.85-5.53 342.63-2.71 340.42-0.73 338.21 1.25 335.1 2.31 331.98 3.37 328.2 3.37L328.2 3.37Q327.37 3.37 326.39 3.26 325.42 3.15 324.42 2.93 323.42 2.71 322.48 2.4 321.54 2.1 320.78 1.71L320.78 1.71 320.78 2.64 310.23 2.64 310.23 1.71ZM318.17-11.35L318.17-11.35Q318.17-9.11 319.04-7.53 319.92-5.96 321.35-4.96 322.78-3.96 324.61-3.49 326.44-3.03 328.35-3.03L328.35-3.03Q330.32-3.03 331.92-3.64 333.52-4.25 334.66-5.37 335.79-6.49 336.4-8.09 337.01-9.69 337.01-11.65L337.01-11.65Q337.01-13.5 336.29-15.05 335.57-16.6 334.33-17.7 333.08-18.8 331.39-19.41 329.69-20.02 327.74-20.02L327.74-20.02Q325.71-20.02 323.96-19.41 322.22-18.8 320.94-17.66 319.66-16.53 318.91-14.93 318.17-13.33 318.17-11.35ZM319.92-11.35L319.92-11.35Q319.92-12.82 320.47-14.09 321.02-15.36 322.04-16.3 323.05-17.24 324.49-17.77 325.93-18.31 327.74-18.31L327.74-18.31Q329.67-18.31 331.2-17.76 332.74-17.21 333.67-15.97L333.67-15.97Q332.06-16.75 330.69-17.07 329.32-17.38 327.74-17.38L327.74-17.38Q326.15-17.38 324.89-16.91 323.63-16.43 322.76-15.6 321.88-14.77 321.41-13.68 320.95-12.6 320.95-11.35L320.95-11.35Q320.95-9.38 322.07-7.76 323.2-6.15 325.71-4.98L325.71-4.98Q324.37-5.15 323.29-5.73 322.22-6.3 321.47-7.17 320.73-8.03 320.33-9.11 319.92-10.18 319.92-11.35ZM351.34 0L351.34-6.71 356.37-6.71Q357.03-5.71 358.25-4.96 359.47-4.2 361.05-3.71 362.62-3.22 364.5-2.98 366.38-2.73 368.36-2.73L368.36-2.73Q369.99-2.73 371.14-2.98 372.29-3.22 373-3.66 373.71-4.1 374.02-4.69 374.34-5.27 374.34-5.98L374.34-5.98Q374.34-7.47 371.96-8.53 369.58-9.59 364.43-10.16L364.43-10.16Q361.01-10.52 358.72-11.17 356.42-11.82 355.02-12.74 353.61-13.67 353.01-14.87 352.42-16.06 352.42-17.5L352.42-17.5Q352.42-18.75 353.2-19.97 353.98-21.19 355.58-22.16 357.18-23.12 359.58-23.71 361.99-24.29 365.23-24.29L365.23-24.29Q366.28-24.29 367.38-24.15 368.48-24 369.53-23.72 370.58-23.44 371.53-23.05 372.48-22.66 373.24-22.17L373.24-22.17 373.24-23.54 378.49-23.54 378.49-16.94 373.24-16.94Q372.97-17.7 372.12-18.38 371.26-19.07 370.09-19.58 368.92-20.09 367.6-20.4 366.28-20.7 365.11-20.7L365.11-20.7Q363.57-20.7 362.21-20.48 360.84-20.26 359.84-19.86 358.84-19.46 358.25-18.9 357.67-18.33 357.67-17.65L357.67-17.65Q357.67-17.02 358.12-16.5 358.57-15.99 359.63-15.55 360.69-15.11 362.46-14.73 364.23-14.36 366.87-14.04L366.87-14.04Q370.39-13.6 372.8-12.92 375.22-12.23 376.73-11.24 378.25-10.25 378.92-8.94 379.59-7.62 379.59-5.91L379.59-5.91Q379.59-4.66 378.83-3.48 378.08-2.29 376.62-1.35 375.17-0.42 373.06 0.16 370.95 0.73 368.21 0.73L368.21 0.73Q366.45 0.73 364.92 0.6 363.38 0.46 361.96 0.15 360.55-0.17 359.23-0.66 357.91-1.15 356.59-1.86L356.59-1.86 356.59 0 351.34 0ZM374.44-14.31L374.44-15.23 380.25-15.23 380.25-22.51 381.23-22.51 381.23-14.31 374.44-14.31ZM359.45-17.65L359.45-17.65Q359.52-17.97 360.03-18.24 360.55-18.51 361.34-18.71 362.13-18.92 363.1-19.04 364.06-19.17 365.04-19.17L365.04-19.17Q365.87-19.17 366.76-19.04 367.65-18.92 368.44-18.7 369.24-18.48 369.88-18.15 370.53-17.82 370.9-17.41L370.9-17.41Q370.34-17.65 369.56-17.81 368.77-17.97 367.96-18.07 367.14-18.16 366.36-18.21 365.58-18.26 365.04-18.26L365.04-18.26Q363.06-18.26 361.61-18.07 360.16-17.87 359.45-17.65ZM352.76-12.82L352.76-12.82Q353.44-11.94 354.39-11.25 355.35-10.57 356.69-10.03 358.03-9.5 359.81-9.12 361.6-8.74 363.92-8.47L363.92-8.47Q366.04-8.23 367.6-7.95 369.16-7.67 370.21-7.32 371.26-6.98 371.85-6.56 372.44-6.13 372.61-5.59L372.61-5.59Q372.09-5.93 371.43-6.19 370.78-6.45 369.75-6.67 368.73-6.88 367.22-7.1 365.72-7.32 363.5-7.59L363.5-7.59Q358.91-8.13 356.25-9.34 353.59-10.55 352.76-12.82ZM352.54 1.71L358.35 1.71 358.35 0.68Q359.03 1 360.08 1.31 361.13 1.61 362.44 1.87 363.74 2.12 365.21 2.28 366.67 2.44 368.19 2.44L368.19 2.44Q371.22 2.44 373.66 1.77 376.1 1.1 377.81-0.04 379.52-1.17 380.43-2.67 381.35-4.17 381.35-5.83L381.35-5.83Q381.35-6.49 381.27-7.06 381.2-7.62 381.02-8.13 380.83-8.64 380.53-9.16 380.22-9.67 379.76-10.23L379.76-10.23Q382.32-8.72 382.32-5.83L382.32-5.83Q382.32-3.88 381.32-2.2 380.32-0.51 378.48 0.72 376.64 1.95 374.02 2.66 371.41 3.37 368.16 3.37L368.16 3.37Q366.97 3.37 365.75 3.26 364.53 3.15 363.38 2.95 362.23 2.76 361.21 2.49 360.18 2.22 359.37 1.88L359.37 1.88 359.37 2.69 352.54 2.69 352.54 1.71Z" opacity="1" transform="matrix(1,0,0,1,0,0)" fill="#3164cc" class="wordmark-text-0" data-fill-palette-color="primary" id="text-0"></path></svg></g></svg></g><g transform="matrix(1,0,0,1,0,38.38402689072018)"><svg viewBox="0 0 244.43135999999998 19.19083342647626" height="19.19083342647626" width="244.43135999999998"><g transform="matrix(1,0,0,1,0,0)"><svg width="244.43135999999998" viewBox="3 -37.5 484 38" height="19.19083342647626" data-palette-color="#5d9eda"><path d="M3-37.5L20.65-37.5Q24.35-37.5 25.78-35.88 27.2-34.25 27.2-30.95L27.2-30.95 27.2-6.55Q27.2-3.1 25.6-1.55 24 0 20.65 0L20.65 0 3 0 3-3.4 6.15-3.4 6.15-34.1 3-34.1 3-37.5ZM23.1-3.4L23.1-34.1 10.25-34.1 10.25-3.4 23.1-3.4ZM64.45-3.4L67.6-3.4 67.6 0 50.2 0Q47.65 0 46.75-1L46.75-1Q45.95-1.9 45.95-4.4L45.95-4.4 45.95-6.25Q45.95-8.05 46.4-8.7L46.4-8.7Q47.05-9.65 49.35-11.05L49.35-11.05 60.35-17.9 60.35-21.6 50.55-21.6 50.55-18.7 47.35-18.7 47.35-25 59.85-25Q62.4-25 63.42-23.9 64.45-22.8 64.45-20.7L64.45-20.7 64.45-3.4ZM60.35-3.4L60.35-13.9 49.95-7.4 49.95-3.4 60.35-3.4ZM101.49-25L101.49-25Q105.39-25 105.39-21.15L105.39-21.15 105.39-16.7 101.34-16.7 101.34-21.55 93.54-16.6 93.54-3.4 95.99-3.4 95.99 0 86.34 0 86.34-3.4 89.49-3.4 89.49-21.65 86.34-21.65 86.34-25.05 93.54-25.05 93.54-20.65 99.69-24.5Q100.49-25 101.49-25ZM124.64-3.65L124.64-20.1Q124.64-25.05 129.79-25.05L129.79-25.05 138.24-25.05Q140.69-25.05 141.79-24.1 142.89-23.15 142.89-20.6L142.89-20.6 142.89-15.95 128.64-6.95 128.64-3.4 138.94-3.4 138.94-6.3 142.89-6.3 142.89-3.65Q142.89-2.15 141.96-1.07 141.04 0 138.89 0L138.89 0 128.64 0Q126.49 0 125.56-1.07 124.64-2.15 124.64-3.65L124.64-3.65ZM128.64-21.6L128.64-11 138.89-17.45 138.89-21.6 128.64-21.6ZM198.08-34.1L201.98-34.1 201.98-25 206.03-25 206.03-21.4 201.98-21.4 201.98-3.4 206.73-3.4 206.73 0 202.53 0Q200.28 0 199.18-1.18 198.08-2.35 198.08-5.2L198.08-5.2 198.08-21.4 194.38-21.4 194.38-25 198.08-25 198.08-34.1ZM238.88 0L229.63 0Q227.08 0 226.03-1.18 224.98-2.35 224.98-4.45L224.98-4.45 224.98-20.55Q224.98-22.55 225.9-23.78 226.83-25 229.63-25L229.63-25 238.88-25Q241.63-25 242.58-23.78 243.53-22.55 243.53-20.55L243.53-20.55 243.53-4.45Q243.53-2.35 242.48-1.18 241.43 0 238.88 0L238.88 0ZM229.03-21.6L229.03-3.4 239.48-3.4 239.48-21.6 229.03-21.6ZM313.72-3.45L316.87-3.45 316.87 0 309.62 0 309.62-5.75 300.97-0.3Q299.42 0.5 298.04 0.5 296.67 0.5 295.84-0.5 295.02-1.5 295.02-2.8L295.02-2.8 295.02-20.3Q295.02-22.6 295.72-23.45L295.72-23.45Q296.92-25 299.52-25L299.52-25 309.62-25 309.62-34.1 306.32-34.1 306.32-37.5 313.72-37.5 313.72-3.45ZM309.62-9.75L309.62-21.6 299.02-21.6 299.02-3.15 309.62-9.75ZM350.76-25L350.76-25Q354.66-25 354.66-21.15L354.66-21.15 354.66-16.7 350.61-16.7 350.61-21.55 342.81-16.6 342.81-3.4 345.26-3.4 345.26 0 335.61 0 335.61-3.4 338.76-3.4 338.76-21.65 335.61-21.65 335.61-25.05 342.81-25.05 342.81-20.65 348.96-24.5Q349.76-25 350.76-25ZM373.91-3.65L373.91-20.1Q373.91-25.05 379.06-25.05L379.06-25.05 387.51-25.05Q389.96-25.05 391.06-24.1 392.16-23.15 392.16-20.6L392.16-20.6 392.16-15.95 377.91-6.95 377.91-3.4 388.21-3.4 388.21-6.3 392.16-6.3 392.16-3.65Q392.16-2.15 391.23-1.07 390.31 0 388.16 0L388.16 0 377.91 0Q375.76 0 374.83-1.07 373.91-2.15 373.91-3.65L373.91-3.65ZM377.91-21.6L377.91-11 388.16-17.45 388.16-21.6 377.91-21.6ZM428.26-3.4L431.41-3.4 431.41 0 414.01 0Q411.46 0 410.56-1L410.56-1Q409.76-1.9 409.76-4.4L409.76-4.4 409.76-6.25Q409.76-8.05 410.21-8.7L410.21-8.7Q410.86-9.65 413.16-11.05L413.16-11.05 424.16-17.9 424.16-21.6 414.36-21.6 414.36-18.7 411.16-18.7 411.16-25 423.66-25Q426.21-25 427.23-23.9 428.26-22.8 428.26-20.7L428.26-20.7 428.26-3.4ZM424.16-3.4L424.16-13.9 413.76-7.4 413.76-3.4 424.16-3.4ZM479.9-25.5L479.9-25.5Q483.8-25.5 483.8-21.65L483.8-21.65 483.8-3.4 487-3.4 487 0 477.35 0 477.35-3.4 479.75-3.4 479.75-22 470.6-16.3 470.6-3.4 473.05-3.4 473.05 0 464.1 0 464.1-3.4 466.5-3.4 466.55-3.6 466.55-22.05 457.35-16.3 457.35-3.4 459.8-3.4 459.8 0 450.15 0 450.15-3.4 453.3-3.4 453.3-21.65 450.15-21.65 450.15-25 457.35-25 457.35-20.25 464.9-25Q465.7-25.5 466.7-25.5L466.7-25.5Q470.6-25.5 470.6-21.65L470.6-21.65 470.6-20.3 478.1-25Q478.9-25.5 479.9-25.5Z" opacity="1" transform="matrix(1,0,0,1,0,0)" fill="#5d9eda" class="slogan-text-1" data-fill-palette-color="secondary" id="text-1"></path></svg></g></svg></g></svg></g></svg></g></svg></g></svg></g></svg></g><path d="M195.989 88.813L195.989 24.869 393.45 24.869 393.45 222.331 195.989 222.331 195.989 158.387 198.789 158.387 198.789 219.531 390.65 219.531 390.65 27.669 198.789 27.669 198.789 88.813Z" fill="#957a6c" stroke="transparent" data-fill-palette-color="tertiary"></path></svg></g><defs></defs></svg><rect width="395.52" height="247.2" fill="none" stroke="none" visibility="hidden"></rect></g></svg></g></svg>